<?xml version="1.0" encoding="UTF-8" standalone="no"?>
<!DOCTYPE svg PUBLIC "-//W3C//DTD SVG 1.1//EN" "http://www.w3.org/Graphics/SVG/1.1/DTD/svg11.dtd">
<svg xmlns="http://www.w3.org/2000/svg" version="1.1" viewBox="0.00 0.00 118.00 122.00">
<path fill="#ffffff" d="
  M 77.30 0.00
  L 79.43 0.00
  C 101.37 8.24 116.08 25.91 118.00 49.64
  L 118.00 71.02
  C 114.53 98.91 92.93 118.33 65.48 121.12
  Q 60.95 121.59 56.37 122.00
  L 27.03 122.00
  L 27.01 52.52
  A 0.57 0.57 0.0 0 1 27.58 51.95
  L 38.06 51.99
  A 0.94 0.94 0.0 0 1 38.99 52.93
  Q 39.01 79.97 38.99 107.25
  Q 38.99 109.78 41.50 109.88
  C 65.35 110.87 88.94 107.48 100.67 84.63
  C 108.76 68.86 107.74 43.68 97.58 28.89
  C 92.49 21.48 86.12 16.98 78.26 12.81
  Q 77.40 12.36 77.25 11.40
  Q 76.40 5.92 77.30 0.00
  Z"
/>
<path fill="#ffffff" d="
  M 0.00 96.50
  L 0.00 20.51
  Q 0.37 19.28 0.22 18.08
  A 0.81 0.81 0.0 0 1 1.01 17.17
  Q 20.35 16.74 39.08 17.00
  Q 50.08 17.15 56.28 18.75
  C 77.74 24.31 92.31 41.70 90.98 64.49
  A 0.54 0.53 1.1 0 1 90.45 64.99
  L 80.14 65.11
  A 1.30 1.29 85.4 0 1 78.85 64.01
  Q 78.22 59.92 77.62 55.54
  C 75.18 37.86 59.85 30.92 44.03 29.18
  Q 28.93 27.51 13.79 28.12
  A 1.86 1.86 0.0 0 0 12.00 29.98
  L 12.00 96.25
  Q 12.00 96.74 11.50 96.81
  Q 5.45 97.60 0.00 96.50
  Z"
/>
</svg>
