<?xml version="1.0" encoding="UTF-8" standalone="no"?>
<!DOCTYPE svg PUBLIC "-//W3C//DTD SVG 1.1//EN" "http://www.w3.org/Graphics/SVG/1.1/DTD/svg11.dtd">
<svg xmlns="http://www.w3.org/2000/svg" version="1.1" viewBox="0.00 0.00 352.00 352.00">
<path fill="#5c2d91" d="
  M 233.52 108.73
  A 1.17 1.14 -29.3 0 0 234.53 109.00
  C 266.54 101.91 292.91 79.97 306.51 50.00
  Q 306.92 49.08 307.91 48.85
  A 1.67 1.67 0.0 0 1 309.78 49.71
  C 324.08 77.52 327.76 107.30 321.85 137.86
  C 314.29 176.90 293.74 212.55 262.67 237.67
  Q 212.32 278.39 145.65 275.94
  Q 135.91 275.58 126.57 273.26
  C 97.67 266.09 76.15 242.32 71.32 213.06
  C 67.17 187.89 79.36 162.31 99.11 147.36
  C 130.49 123.61 175.41 129.23 199.85 160.88
  Q 212.92 177.81 214.70 199.74
  C 215.61 210.96 212.24 227.51 197.52 226.08
  C 186.93 225.06 182.67 216.98 182.62 207.25
  Q 182.56 192.91 182.64 177.59
  C 182.67 169.54 178.65 162.68 171.20 159.48
  Q 167.22 157.78 161.18 157.93
  Q 151.54 158.16 142.87 157.96
  Q 133.25 157.73 126.97 159.48
  C 103.05 166.15 89.19 189.54 95.33 213.72
  C 100.77 235.17 121.93 249.31 143.81 246.47
  Q 160.64 244.28 171.96 231.33
  Q 172.34 230.90 172.67 231.37
  C 188.63 254.03 220.93 246.31 230.40 222.45
  Q 233.52 214.59 232.69 202.58
  Q 231.47 185.02 226.61 172.31
  C 215.21 142.51 189.73 120.18 157.68 114.75
  C 121.55 108.63 86.30 124.02 66.34 154.63
  C 31.99 207.27 61.81 277.00 121.96 291.57
  Q 130.17 293.56 140.77 294.15
  Q 204.87 297.72 258.20 263.75
  Q 258.44 263.60 258.68 263.75
  A 0.47 0.47 0.0 0 1 258.77 264.47
  Q 221.07 304.34 166.26 311.76
  Q 154.14 313.40 134.28 312.54
  C 85.80 310.45 45.92 276.32 35.09 229.60
  Q 31.61 214.62 32.74 196.68
  C 36.03 144.51 75.00 102.17 126.59 95.20
  C 138.75 93.56 153.21 94.17 165.95 94.29
  Q 177.98 94.40 185.07 93.59
  Q 219.93 89.62 244.70 63.96
  C 245.41 63.21 245.91 62.27 247.11 62.51
  A 1.25 1.25 0.0 0 1 248.11 63.86
  Q 245.68 87.43 233.28 106.82
  Q 232.60 107.89 233.52 108.73
  Z"
/>
<path fill="#5c2d91" d="
  M 163.61 210.35
  C 155.05 236.18 118.73 234.15 112.62 207.68
  C 109.57 194.48 117.84 181.09 130.39 177.11
  Q 135.73 175.42 146.47 175.69
  Q 155.24 175.91 162.79 175.68
  A 2.21 2.20 89.9 0 1 165.06 177.95
  Q 164.84 186.62 165.07 196.10
  Q 165.29 205.28 163.61 210.35
  Z"
/>
</svg>
