<?xml version="1.0" encoding="UTF-8" standalone="no"?>
<!DOCTYPE svg PUBLIC "-//W3C//DTD SVG 1.1//EN" "http://www.w3.org/Graphics/SVG/1.1/DTD/svg11.dtd">
<svg xmlns="http://www.w3.org/2000/svg" version="1.1" viewBox="0.00 0.00 312.00 161.00">
<path fill="#41ade7" d="
  M 153.39 87.85
  C 142.72 84.86 135.59 75.35 133.74 64.70
  Q 131.42 51.31 139.04 40.75
  C 144.82 32.73 153.87 28.97 163.78 28.37
  Q 174.72 27.71 183.12 30.65
  Q 183.66 30.84 183.50 31.40
  L 181.20 38.97
  A 0.91 0.91 0.0 0 1 179.64 39.30
  C 174.70 33.52 167.51 32.18 160.33 33.37
  C 146.38 35.66 141.33 48.53 142.70 61.49
  C 144.07 74.41 152.62 83.89 165.98 83.81
  Q 175.32 83.75 181.61 79.12
  A 0.63 0.62 -43.3 0 1 182.39 79.14
  L 182.61 79.31
  Q 182.94 79.58 182.80 79.98
  L 180.61 86.53
  Q 180.40 87.15 179.75 87.32
  Q 164.87 91.06 153.39 87.85
  Z"
/>
<path fill="#41ade7" d="
  M 77.43 40.99
  C 77.39 37.66 77.44 32.57 72.40 33.25
  Q 71.80 33.33 72.04 32.78
  L 73.26 30.00
  Q 73.42 29.62 73.83 29.62
  L 85.74 29.59
  Q 86.20 29.59 86.12 30.04
  Q 85.67 32.62 85.62 35.04
  Q 85.31 49.89 85.30 66.18
  C 85.29 73.13 86.69 79.31 93.49 82.38
  Q 100.48 85.55 108.62 83.31
  C 116.66 81.11 119.59 75.18 119.68 67.33
  Q 119.83 54.11 119.86 41.86
  Q 119.87 35.93 118.43 30.26
  Q 118.27 29.63 118.91 29.63
  L 126.99 29.59
  Q 127.61 29.59 127.50 30.19
  C 126.85 33.67 126.51 37.34 126.50 40.82
  Q 126.48 53.44 126.26 66.50
  Q 126.23 68.88 125.91 71.35
  C 124.12 85.19 112.98 89.96 100.49 89.80
  C 91.97 89.70 81.96 86.53 78.89 77.97
  Q 77.27 73.46 77.36 68.05
  Q 77.60 54.15 77.43 40.99
  Z"
/>
<path fill="#41ade7" d="
  M 216.67 56.91
  A 0.18 0.18 0.0 0 0 216.59 57.18
  Q 223.46 67.15 230.63 77.61
  Q 234.45 83.18 240.19 87.94
  A 0.12 0.12 0.0 0 1 240.12 88.15
  Q 233.60 88.39 228.00 88.63
  Q 227.70 88.65 227.50 88.43
  Q 227.06 87.96 226.76 87.39
  Q 219.92 74.59 210.53 62.38
  Q 208.34 59.53 205.01 59.45
  A 0.31 0.31 0.0 0 1 204.74 59.01
  Q 205.41 57.55 205.54 55.82
  Q 205.57 55.39 206.01 55.38
  C 207.60 55.36 209.36 55.41 210.91 55.06
  Q 219.61 53.07 219.74 43.73
  C 219.82 38.37 216.26 34.36 210.99 33.67
  Q 207.36 33.21 203.09 33.91
  Q 202.47 34.01 202.46 34.64
  Q 202.12 55.47 202.32 77.43
  Q 202.37 82.75 203.77 87.65
  Q 203.95 88.28 203.30 88.22
  Q 198.47 87.84 193.81 88.22
  Q 193.08 88.28 193.21 87.56
  C 193.81 84.21 194.22 80.73 194.24 77.41
  Q 194.34 61.56 194.40 45.78
  Q 194.42 41.08 193.98 36.83
  Q 193.54 32.62 188.93 33.27
  A 0.11 0.11 0.0 0 1 188.81 33.11
  L 190.29 29.82
  Q 190.39 29.58 190.66 29.58
  Q 197.94 29.80 207.66 29.46
  C 211.90 29.32 217.54 29.07 221.36 30.87
  C 229.44 34.68 230.20 46.65 223.82 52.34
  Q 220.59 55.22 216.67 56.91
  Z"
/>
<path fill="#41ade7" d="
  M 213.75 101.23
  Q 235.40 103.42 253.68 107.08
  Q 254.24 107.19 254.24 107.76
  L 254.26 109.01
  Q 254.26 109.54 253.73 109.49
  C 188.68 103.55 122.70 103.95 57.94 109.62
  Q 57.49 109.66 57.51 109.21
  L 57.55 107.75
  A 0.68 0.68 0.0 0 1 58.10 107.11
  Q 67.59 105.42 85.23 103.08
  Q 148.77 94.66 213.75 101.23
  Z"
/>
<path fill="#41ade7" d="
  M 175.61 122.84
  C 174.18 127.45 178.85 131.27 183.17 128.86
  Q 183.89 128.46 183.78 129.27
  Q 183.60 130.65 182.11 130.69
  C 178.75 130.80 176.36 131.12 174.45 127.99
  C 172.35 124.54 173.70 119.93 177.57 118.49
  Q 180.81 117.27 183.80 118.56
  A 0.47 0.47 0.0 0 1 184.04 119.18
  L 183.79 119.73
  Q 183.49 120.40 182.83 120.07
  Q 177.34 117.27 175.61 122.84
  Z"
/>
<path fill="#41ade7" d="
  M 61.22 129.60
  Q 61.85 129.76 62.49 129.73
  Q 66.03 129.54 65.97 126.00
  L 65.86 118.71
  Q 65.85 118.26 66.29 118.26
  L 67.00 118.24
  Q 67.52 118.24 67.50 118.76
  Q 67.34 122.24 67.39 125.72
  Q 67.47 130.89 62.36 130.95
  Q 56.29 131.03 57.10 124.75
  Q 57.55 121.28 56.43 118.70
  Q 56.19 118.16 56.78 118.21
  L 58.48 118.36
  Q 59.03 118.41 59.02 118.97
  L 58.82 126.42
  Q 58.76 128.96 61.22 129.60
  Z"
/>
<path fill="#41ade7" d="
  M 227.95 123.84
  A 0.31 0.31 0.0 0 0 227.80 124.29
  Q 229.65 127.43 232.02 130.01
  Q 232.53 130.57 231.77 130.63
  L 230.53 130.73
  A 1.12 1.10 -15.1 0 1 229.44 130.12
  Q 227.77 126.72 225.34 124.32
  Q 224.79 123.78 225.56 123.76
  Q 227.59 123.70 228.20 121.75
  A 1.84 1.84 0.0 0 0 226.91 119.42
  L 226.22 119.24
  Q 224.54 118.80 224.57 120.54
  L 224.76 130.26
  Q 224.76 130.52 224.50 130.52
  L 223.05 130.55
  A 0.25 0.25 0.0 0 1 222.79 130.30
  L 222.88 120.25
  Q 222.89 119.67 222.43 119.33
  L 222.01 119.02
  A 0.36 0.36 0.0 0 1 222.20 118.37
  Q 225.02 118.19 227.57 118.33
  C 230.77 118.49 230.83 122.61 227.95 123.84
  Z"
/>
<path fill="#41ade7" d="
  M 115.21 129.00
  A 1.70 1.70 0.0 0 0 115.18 126.39
  C 113.92 125.37 111.64 124.67 111.18 123.01
  C 110.29 119.85 114.11 118.32 116.55 119.54
  Q 116.88 119.70 116.86 120.07
  Q 116.85 120.52 116.56 120.83
  Q 116.27 121.15 115.94 120.88
  Q 114.61 119.76 113.30 120.43
  A 1.52 1.52 0.0 0 0 113.25 123.11
  C 115.29 124.24 119.07 126.26 116.49 129.24
  Q 114.65 131.36 111.42 130.32
  Q 110.86 130.13 111.05 129.58
  L 111.24 128.99
  A 0.51 0.51 0.0 0 1 112.07 128.79
  Q 113.67 130.31 115.21 129.00
  Z"
/>
<path fill="#41ade7" d="
  M 188.0636 130.4865
  A 5.87 5.59 106.9 0 1 184.4214 123.2450
  A 5.87 5.59 106.9 0 1 191.4764 119.2535
  A 5.87 5.59 106.9 0 1 195.1186 126.4950
  A 5.87 5.59 106.9 0 1 188.0636 130.4865
  Z
  M 190.0145 129.6743
  A 4.80 3.86 87.2 0 0 193.6354 124.6914
  A 4.80 3.86 87.2 0 0 189.5455 120.0857
  A 4.80 3.86 87.2 0 0 185.9246 125.0686
  A 4.80 3.86 87.2 0 0 190.0145 129.6743
  Z"
/>
<path fill="#41ade7" d="
  M 196.46 128.60
  C 197.48 129.44 198.92 130.06 200.06 129.06
  A 1.81 1.81 0.0 0 0 199.83 126.16
  L 197.12 124.48
  A 2.64 2.63 -58.1 0 1 196.28 120.85
  Q 197.69 118.57 200.81 119.25
  Q 201.71 119.44 201.57 120.35
  Q 201.54 120.52 201.44 120.67
  Q 201.05 121.26 200.54 120.78
  Q 199.33 119.66 198.01 120.52
  A 1.50 1.49 -47.3 0 0 198.11 123.10
  C 200.12 124.18 204.00 126.34 201.38 129.23
  Q 199.32 131.50 196.02 130.17
  Q 195.80 130.09 195.86 129.86
  L 196.15 128.70
  Q 196.23 128.40 196.46 128.60
  Z"
/>
<path fill="#41ade7" d="
  M 138.78 127.62
  A 2.44 2.44 0.0 0 0 134.40 127.11
  Q 133.70 128.25 133.62 129.92
  Q 133.60 130.28 133.24 130.27
  L 131.99 130.24
  A 0.16 0.16 0.0 0 1 131.85 130.02
  L 135.76 120.56
  Q 136.85 117.93 137.85 120.59
  L 141.43 130.02
  Q 141.52 130.25 141.27 130.25
  L 139.83 130.24
  Q 139.66 130.24 139.60 130.07
  L 138.78 127.62
  Z
  M 135.19 124.82
  A 0.34 0.34 0.0 0 0 135.50 125.27
  L 137.49 125.32
  A 0.34 0.34 0.0 0 0 137.83 124.88
  L 136.90 121.87
  A 0.34 0.34 0.0 0 0 136.25 121.86
  L 135.19 124.82
  Z"
/>
<path fill="#41ade7" d="
  M 215.75 126.27
  L 213.21 126.26
  Q 212.69 126.26 212.44 126.72
  Q 211.69 128.11 211.57 129.72
  Q 211.51 130.41 210.83 130.26
  Q 210.53 130.20 210.23 130.26
  Q 209.58 130.40 209.83 129.79
  L 213.69 120.49
  Q 214.73 117.97 215.71 120.51
  L 219.38 130.04
  Q 219.46 130.25 219.23 130.25
  L 217.77 130.25
  A 0.33 0.32 -8.5 0 1 217.46 130.03
  L 216.41 126.75
  Q 216.26 126.27 215.75 126.27
  Z
  M 213.11 124.87
  A 0.34 0.34 0.0 0 0 213.43 125.32
  L 215.44 125.31
  A 0.34 0.34 0.0 0 0 215.76 124.86
  L 214.74 121.94
  A 0.34 0.34 0.0 0 0 214.10 121.94
  L 213.11 124.87
  Z"
/>
<path fill="#41ade7" d="
  M 244.59 121.23
  Q 243.20 119.96 241.52 120.31
  C 234.98 121.69 238.82 132.38 244.58 128.73
  Q 245.16 128.36 245.27 129.04
  Q 245.42 129.95 244.54 130.18
  C 233.51 133.04 233.80 116.48 245.07 119.60
  A 0.52 0.52 0.0 0 1 245.44 120.16
  L 245.34 120.96
  Q 245.23 121.82 244.59 121.23
  Z"
/>
<path fill="#41ade7" d="
  M 248.56 126.70
  L 247.66 129.80
  Q 247.50 130.35 246.93 130.30
  L 246.48 130.26
  Q 245.95 130.21 246.15 129.72
  L 249.96 120.24
  Q 250.16 119.74 250.57 119.40
  Q 250.93 119.11 251.27 119.28
  Q 251.61 119.47 251.74 119.84
  Q 253.54 125.09 255.57 129.82
  Q 255.76 130.26 255.28 130.26
  L 254.17 130.26
  Q 253.74 130.25 253.61 129.84
  L 252.67 126.89
  Q 252.47 126.29 251.83 126.28
  L 249.17 126.25
  Q 248.70 126.24 248.56 126.70
  Z
  M 249.29 124.82
  A 0.34 0.34 0.0 0 0 249.59 125.27
  L 251.58 125.34
  A 0.34 0.34 0.0 0 0 251.92 124.91
  L 251.03 121.84
  A 0.34 0.34 0.0 0 0 250.39 121.82
  L 249.29 124.82
  Z"
/>
<path fill="#41ade7" d="
  M 70.46 122.53
  L 70.64 130.06
  Q 70.65 130.26 70.45 130.25
  L 69.27 130.21
  Q 69.08 130.20 69.09 130.01
  C 69.23 127.81 69.85 122.06 68.68 120.15
  Q 68.27 119.48 69.06 119.49
  L 70.65 119.51
  Q 71.04 119.52 71.27 119.83
  L 76.66 126.92
  Q 77.36 127.84 77.32 126.69
  L 77.10 119.84
  Q 77.09 119.51 77.41 119.53
  L 78.21 119.55
  Q 78.71 119.57 78.68 120.07
  Q 78.38 124.55 78.60 128.78
  Q 78.77 132.07 76.76 129.46
  L 71.19 122.27
  Q 70.43 121.30 70.46 122.53
  Z"
/>
<path fill="#41ade7" d="
  M 82.30 119.79
  L 82.32 130.09
  A 0.16 0.16 0.0 0 1 82.16 130.25
  L 80.94 130.26
  Q 80.54 130.26 80.59 129.87
  Q 81.17 125.41 80.28 119.70
  Q 80.24 119.45 80.49 119.47
  L 82.11 119.59
  Q 82.30 119.60 82.30 119.79
  Z"
/>
<path fill="#41ade7" d="
  M 88.30 127.77
  Q 90.18 123.88 91.03 119.84
  Q 91.08 119.58 91.35 119.54
  Q 92.26 119.41 92.98 119.74
  Q 93.06 119.78 93.02 119.87
  Q 91.00 124.01 89.24 128.74
  Q 87.84 132.51 86.61 128.68
  Q 85.16 124.14 83.13 119.72
  Q 83.04 119.53 83.25 119.52
  L 84.79 119.50
  Q 85.12 119.49 85.23 119.80
  L 87.80 127.74
  Q 88.01 128.37 88.30 127.77
  Z"
/>
<path fill="#41ade7" d="
  M 97.01 125.02
  Q 96.22 124.95 96.22 125.74
  L 96.24 128.30
  Q 96.24 129.17 97.11 129.26
  Q 98.79 129.42 100.26 128.78
  Q 100.76 128.56 100.79 129.11
  Q 100.86 130.41 99.60 130.33
  Q 97.51 130.20 95.18 130.30
  Q 94.55 130.32 94.58 129.69
  C 94.73 127.31 95.17 123.21 94.55 120.88
  Q 94.45 120.53 94.19 120.29
  Q 93.32 119.51 94.50 119.51
  L 99.53 119.49
  A 0.60 0.59 8.0 0 1 100.11 120.25
  Q 100.02 120.57 99.79 120.81
  A 0.46 0.45 35.1 0 1 99.26 120.90
  Q 98.04 120.29 96.69 120.51
  Q 96.22 120.59 96.22 121.07
  L 96.23 123.54
  Q 96.23 124.10 96.79 124.05
  L 98.91 123.89
  Q 99.32 123.86 99.48 124.23
  Q 99.58 124.45 99.55 124.69
  Q 99.47 125.26 98.90 125.20
  L 97.01 125.02
  Z"
/>
<path fill="#41ade7" d="
  M 106.54 125.22
  L 109.85 129.70
  Q 110.33 130.35 109.52 130.36
  L 108.94 130.36
  Q 108.08 130.37 107.68 129.61
  Q 106.45 127.26 104.52 125.14
  Q 103.91 124.46 104.80 124.28
  Q 105.35 124.17 105.76 123.81
  Q 108.03 121.80 105.15 120.33
  A 1.14 1.14 0.0 0 0 103.49 121.36
  L 103.64 130.05
  A 0.20 0.19 -90.0 0 1 103.45 130.25
  L 102.28 130.24
  Q 102.04 130.24 102.05 130.00
  Q 102.14 126.00 102.13 122.11
  C 102.12 121.35 101.99 120.87 101.56 120.24
  Q 101.08 119.55 101.92 119.53
  Q 103.75 119.48 105.78 119.50
  C 108.68 119.53 109.14 122.90 106.73 124.28
  Q 106.11 124.64 106.54 125.22
  Z"
/>
<path fill="#41ade7" d="
  M 118.22 119.74
  Q 118.17 119.44 118.47 119.46
  L 119.87 119.57
  A 0.39 0.39 0.0 0 1 120.24 119.96
  L 120.27 130.00
  A 0.26 0.26 0.0 0 1 120.00 130.26
  L 118.76 130.24
  Q 118.47 130.24 118.50 129.95
  Q 119.10 125.02 118.22 119.74
  Z"
/>
<path fill="#41ade7" d="
  M 121.95 120.30
  Q 121.75 120.25 121.69 120.07
  A 0.38 0.38 0.0 0 1 122.02 119.56
  Q 124.76 119.40 127.40 119.52
  C 133.58 119.81 133.57 127.56 128.86 129.71
  Q 126.68 130.70 122.87 130.21
  Q 122.48 130.16 122.48 129.77
  L 122.49 121.01
  Q 122.49 120.45 121.95 120.30
  Z
  M 124.02 121.22
  L 124.04 128.48
  A 0.76 0.76 0.0 0 0 124.80 129.23
  L 126.42 129.23
  A 4.08 3.93 -0.1 0 0 130.49 125.29
  L 130.49 124.37
  A 4.08 3.93 -0.1 0 0 126.40 120.45
  L 124.78 120.45
  A 0.76 0.76 0.0 0 0 124.02 121.22
  Z"
/>
<path fill="#41ade7" d="
  M 142.06 120.43
  L 141.84 120.22
  Q 141.18 119.55 142.12 119.53
  Q 144.73 119.49 147.41 119.49
  C 153.94 119.48 153.57 128.57 148.10 130.02
  Q 146.18 130.53 142.99 130.24
  Q 142.50 130.20 142.50 129.71
  L 142.50 121.50
  Q 142.50 120.88 142.06 120.43
  Z
  M 144.10 121.12
  L 144.08 128.56
  A 0.67 0.67 0.0 0 0 144.75 129.24
  L 146.44 129.24
  A 4.08 3.94 0.1 0 0 150.53 125.31
  L 150.53 124.41
  A 4.08 3.94 0.1 0 0 146.46 120.46
  L 144.77 120.46
  A 0.67 0.67 0.0 0 0 144.10 121.12
  Z"
/>
<path fill="#41ade7" d="
  M 207.84 121.25
  L 207.97 130.01
  Q 207.98 130.24 207.74 130.24
  L 206.53 130.24
  Q 206.32 130.24 206.33 130.03
  L 206.50 121.23
  Q 206.51 120.54 205.82 120.47
  Q 204.48 120.35 203.39 120.88
  Q 202.65 121.24 202.66 120.42
  Q 202.66 119.97 202.95 119.68
  Q 203.20 119.43 203.56 119.45
  Q 207.21 119.70 211.08 119.44
  Q 211.63 119.41 211.71 119.96
  Q 211.76 120.29 211.64 120.62
  Q 211.39 121.29 210.77 120.93
  Q 209.80 120.38 208.61 120.44
  Q 207.83 120.47 207.84 121.25
  Z"
/>
<path fill="#41ade7" d="
  M 232.84 119.77
  Q 232.76 119.49 233.06 119.50
  L 234.97 119.58
  Q 235.24 119.59 235.22 119.85
  Q 234.80 125.08 235.22 129.80
  Q 235.26 130.28 234.78 130.26
  L 233.77 130.22
  Q 233.26 130.21 233.32 129.69
  Q 234.05 123.98 232.84 119.77
  Z"
/>
<path fill="#41ade7" d="
  M 156.52 121.19
  A 0.22 0.22 0.0 0 1 156.73 120.96
  L 159.60 120.87
  A 4.17 3.92 -1.8 0 1 163.89 124.66
  L 163.90 125.04
  A 4.17 3.92 -1.8 0 1 159.86 129.08
  L 156.99 129.18
  A 0.22 0.22 0.0 0 1 156.76 128.96
  L 156.52 121.19
  Z
  M 157.89 122.50
  L 157.81 127.56
  A 0.86 0.86 0.0 0 0 158.66 128.44
  L 159.03 128.44
  A 3.55 3.20 0.9 0 0 162.63 125.30
  L 162.63 124.92
  A 3.55 3.20 0.9 0 0 159.13 121.66
  L 158.76 121.66
  A 0.86 0.86 0.0 0 0 157.89 122.50
  Z"
/>
<path fill="#41ade7" d="
  M 166.07 125.89
  L 166.14 127.72
  Q 166.17 128.21 166.64 128.36
  Q 167.85 128.75 168.83 127.94
  Q 169.36 127.50 169.46 128.19
  Q 169.51 128.56 169.31 128.88
  Q 169.09 129.24 168.66 129.22
  Q 167.01 129.17 165.33 129.11
  A 0.56 0.56 0.0 0 1 164.80 128.47
  Q 165.31 124.97 164.65 121.47
  Q 164.57 121.03 165.01 121.03
  L 168.67 121.03
  A 0.37 0.37 0.0 0 1 169.04 121.42
  L 169.01 121.90
  Q 168.98 122.29 168.60 122.19
  L 166.91 121.77
  Q 166.17 121.58 166.11 122.34
  L 165.98 123.71
  A 0.56 0.56 0.0 0 0 166.47 124.32
  L 168.60 124.56
  Q 168.73 124.58 168.71 124.70
  L 168.68 125.04
  Q 168.66 125.25 168.44 125.26
  L 166.62 125.30
  Q 166.05 125.32 166.07 125.89
  Z"
/>
</svg>
