<?xml version="1.0" encoding="UTF-8" standalone="no"?>
<!DOCTYPE svg PUBLIC "-//W3C//DTD SVG 1.1//EN" "http://www.w3.org/Graphics/SVG/1.1/DTD/svg11.dtd">
<svg xmlns="http://www.w3.org/2000/svg" version="1.1" viewBox="0.00 0.00 1195.00 500.00">
<path fill="#00d8b9" d="
  M 44.92 168.85
  Q 59.28 140.69 80.78 120.16
  Q 124.64 78.28 183.43 70.13
  Q 226.30 64.20 268.41 78.69
  C 309.06 92.68 343.27 121.65 365.34 157.99
  C 374.43 172.96 382.25 191.96 386.34 209.93
  Q 397.17 257.52 383.37 304.23
  Q 380.52 313.89 376.45 323.20
  Q 357.88 365.71 322.28 394.29
  Q 287.49 422.23 243.46 431.03
  A 1.28 1.28 0.0 0 1 241.94 429.65
  Q 245.00 397.72 248.90 364.92
  Q 250.17 354.27 251.16 345.06
  Q 256.93 291.01 262.67 237.98
  C 263.37 231.45 261.56 225.98 253.93 225.98
  Q 172.22 226.03 90.50 225.93
  C 88.61 225.93 85.77 225.96 84.61 227.77
  C 83.29 229.82 84.05 231.92 85.79 233.35
  Q 132.49 271.66 180.15 310.80
  C 181.79 312.14 180.60 315.11 180.41 316.84
  Q 174.64 370.42 168.80 424.10
  Q 168.53 426.57 168.03 429.19
  A 0.93 0.93 0.0 0 1 166.90 429.92
  Q 158.16 427.83 149.82 425.01
  C 105.41 410.00 67.47 377.85 45.92 336.36
  Q 16.07 278.90 28.72 214.43
  Q 33.13 191.99 44.92 168.85
  Z
  M 195.39 178.12
  C 194.74 185.18 193.24 195.06 201.85 197.86
  Q 205.01 198.89 207.51 198.92
  Q 230.11 199.17 250.24 198.89
  Q 256.78 198.80 261.09 195.19
  C 266.29 190.84 268.47 185.33 269.10 178.43
  Q 270.57 162.41 272.51 145.48
  C 273.44 137.41 270.10 131.08 260.94 131.04
  Q 234.64 130.92 211.60 131.05
  Q 204.64 131.08 201.16 137.08
  C 199.59 139.79 199.18 144.28 198.75 147.52
  Q 196.91 161.39 195.39 178.12
  Z"
/>
<path fill="#ffffff" d="
  M 584.85 150.96
  C 584.22 157.09 579.89 162.90 574.60 164.89
  Q 571.14 166.19 561.24 166.22
  Q 549.81 166.26 539.32 165.94
  C 535.91 165.83 529.55 165.55 527.32 162.66
  C 524.79 159.40 524.90 155.29 525.28 151.42
  Q 526.74 136.71 528.51 121.97
  C 528.98 118.06 530.91 113.33 534.74 111.87
  Q 536.87 111.07 538.89 111.04
  Q 558.15 110.76 579.20 111.03
  C 583.30 111.08 587.05 114.02 587.73 118.01
  Q 588.14 120.39 587.84 123.00
  Q 586.21 137.50 584.85 150.96
  Z"
/>
<path fill="#ffffff" d="
  M 624.02 250.97
  A 0.95 0.94 0.0 0 0 623.08 250.04
  Q 616.92 250.01 611.21 249.99
  C 605.14 249.98 601.66 244.71 602.23 239.19
  Q 603.55 226.35 604.88 213.03
  C 605.91 202.69 608.10 196.61 619.80 196.13
  Q 625.02 195.91 630.03 195.99
  A 0.68 0.67 2.7 0 0 630.72 195.37
  Q 632.34 176.53 634.45 159.80
  C 635.32 152.97 640.33 149.95 646.25 147.86
  Q 664.58 141.38 682.50 135.71
  Q 687.62 134.08 692.51 135.54
  C 695.39 136.40 695.98 143.19 695.70 145.73
  Q 692.85 172.42 690.15 194.69
  A 1.19 1.18 2.7 0 0 691.36 196.01
  Q 703.36 195.69 715.38 196.12
  C 721.06 196.33 726.51 198.84 726.21 205.50
  Q 725.60 219.07 723.02 237.89
  C 722.00 245.26 718.19 250.23 710.26 250.11
  Q 697.02 249.92 684.89 250.03
  Q 684.26 250.04 684.20 250.66
  Q 678.22 307.06 672.06 365.02
  Q 671.49 370.35 670.83 375.24
  C 670.01 381.32 667.63 386.23 661.70 387.73
  Q 657.03 388.91 651.61 389.08
  Q 633.60 389.65 621.25 388.62
  Q 610.84 387.76 611.13 378.40
  Q 611.27 373.86 611.90 368.08
  Q 617.31 318.04 622.52 268.91
  C 623.16 262.87 624.11 256.98 624.02 250.97
  Z"
/>
<path fill="#ffffff" d="
  M 913.3368 214.7666
  A 108.34 97.20 -43.6 0 1 901.9110 359.8695
  A 108.34 97.20 -43.6 0 1 756.4232 364.1934
  A 108.34 97.20 -43.6 0 1 767.8490 219.0905
  A 108.34 97.20 -43.6 0 1 913.3368 214.7666
  Z
  M 819.40 338.25
  Q 842.80 342.02 859.09 328.86
  C 869.54 320.42 876.21 308.05 878.51 294.88
  Q 881.09 280.18 877.76 267.84
  C 873.38 251.65 860.47 240.14 843.58 239.22
  C 832.00 238.58 822.36 240.68 812.71 247.39
  C 796.27 258.84 787.99 278.18 788.31 298.00
  Q 788.48 308.73 793.25 318.32
  C 798.16 328.20 808.34 336.46 819.40 338.25
  Z"
/>
<path fill="#ffffff" d="
  M 1144.6113 214.7728
  A 108.36 97.16 -43.6 0 1 1133.1434 359.8605
  A 108.36 97.16 -43.6 0 1 987.6687 364.2272
  A 108.36 97.16 -43.6 0 1 999.1366 219.1395
  A 108.36 97.16 -43.6 0 1 1144.6113 214.7728
  Z
  M 1077.47 239.52
  C 1062.54 237.79 1049.61 241.69 1038.63 251.68
  Q 1024.94 264.14 1021.09 283.16
  Q 1018.69 295.00 1020.71 306.52
  C 1023.69 323.53 1036.11 336.83 1053.52 338.66
  Q 1064.24 339.79 1072.14 337.91
  C 1089.70 333.74 1102.70 319.41 1108.05 302.07
  Q 1112.29 288.29 1110.18 273.44
  Q 1108.25 259.87 1098.84 249.74
  Q 1090.76 241.06 1077.47 239.52
  Z"
/>
<path fill="#ffffff" d="
  M 513.40 258.95
  Q 512.28 258.11 511.22 257.25
  Q 473.91 226.82 436.29 195.73
  C 434.11 193.92 434.16 190.02 437.79 190.02
  Q 500.79 189.97 564.33 190.00
  Q 568.41 190.00 572.74 190.07
  Q 578.17 190.15 579.44 194.11
  Q 580.06 196.05 579.55 200.92
  Q 574.33 250.85 568.96 298.49
  Q 565.61 328.13 561.22 370.26
  Q 560.66 375.61 559.43 380.37
  C 557.46 387.97 547.54 388.94 540.65 389.13
  Q 524.69 389.56 512.36 388.78
  C 507.41 388.46 501.37 387.08 501.15 380.97
  Q 500.97 375.91 501.86 367.78
  Q 507.33 317.93 512.77 268.09
  C 513.07 265.34 512.87 262.72 513.74 260.07
  Q 513.97 259.39 513.40 258.95
  Z"
/>
</svg>
