<?xml version="1.0" encoding="UTF-8" standalone="no"?>
<!DOCTYPE svg PUBLIC "-//W3C//DTD SVG 1.1//EN" "http://www.w3.org/Graphics/SVG/1.1/DTD/svg11.dtd">
<svg xmlns="http://www.w3.org/2000/svg" version="1.1" viewBox="0.00 0.00 685.00 364.00">
<path fill="#dd8b41" d="
  M 206.81 7.49
  C 220.29 7.49 214.60 54.97 213.75 63.03
  A 0.50 0.50 0.0 0 1 213.28 63.47
  Q 172.22 65.69 131.62 67.87
  C 125.32 68.21 120.85 66.19 117.68 60.69
  C 114.35 54.93 115.20 50.34 116.27 42.69
  Q 118.64 25.66 121.07 7.90
  A 0.46 0.45 -85.6 0 1 121.52 7.51
  Q 163.76 7.49 206.81 7.49
  Z"
/>
<path fill="#68615b" d="
  M 373.43 21.45
  C 392.64 29.19 403.11 46.72 406.10 66.82
  C 411.64 104.10 401.32 146.64 356.23 150.87
  C 329.88 153.34 306.14 144.76 295.16 119.10
  Q 291.92 111.53 290.66 104.04
  C 284.71 68.63 292.74 24.96 335.21 18.04
  C 347.62 16.02 361.77 16.75 373.43 21.45
  Z
  M 360.73 38.02
  C 346.35 33.60 328.45 36.43 319.62 50.17
  Q 314.42 58.27 312.80 69.14
  Q 310.18 86.73 313.52 103.14
  C 316.65 118.49 325.92 129.81 342.05 131.69
  C 354.12 133.10 366.37 130.87 374.38 121.42
  Q 380.10 114.68 382.20 105.74
  Q 387.26 84.28 382.26 63.12
  C 379.55 51.62 372.25 41.55 360.73 38.02
  Z"
/>
<path fill="#68615b" d="
  M 512.56 111.04
  L 512.51 19.76
  A 0.33 0.33 0.0 0 1 512.84 19.43
  L 534.44 19.37
  A 0.33 0.33 0.0 0 1 534.77 19.70
  L 534.75 148.47
  A 0.33 0.33 0.0 0 1 534.42 148.80
  L 513.92 148.80
  A 0.33 0.33 0.0 0 1 513.64 148.65
  L 452.36 57.17
  A 0.33 0.33 0.0 0 0 451.76 57.36
  L 451.75 148.47
  A 0.33 0.33 0.0 0 1 451.42 148.80
  L 429.86 148.79
  A 0.33 0.33 0.0 0 1 429.53 148.46
  L 429.55 19.76
  A 0.33 0.33 0.0 0 1 429.88 19.43
  L 450.39 19.41
  A 0.33 0.33 0.0 0 1 450.67 19.56
  L 511.96 111.23
  A 0.33 0.33 0.0 0 0 512.56 111.04
  Z"
/>
<path fill="#68615b" d="
  M 584.67 129.99
  L 645.30 129.99
  A 0.46 0.46 0.0 0 1 645.76 130.45
  L 645.76 148.35
  A 0.46 0.46 0.0 0 1 645.30 148.81
  L 562.28 148.81
  A 0.46 0.46 0.0 0 1 561.82 148.35
  L 561.82 19.88
  A 0.46 0.46 0.0 0 1 562.28 19.42
  L 643.59 19.42
  A 0.46 0.46 0.0 0 1 644.05 19.88
  L 644.07 37.80
  A 0.46 0.46 0.0 0 1 643.61 38.26
  L 584.61 38.24
  A 0.46 0.46 0.0 0 0 584.15 38.70
  L 584.22 73.31
  A 0.46 0.46 0.0 0 0 584.68 73.77
  L 638.32 73.81
  A 0.46 0.46 0.0 0 1 638.78 74.27
  L 638.81 92.49
  A 0.46 0.46 0.0 0 1 638.35 92.95
  L 584.61 92.92
  A 0.46 0.46 0.0 0 0 584.15 93.38
  L 584.21 129.53
  A 0.46 0.46 0.0 0 0 584.67 129.99
  Z"
/>
<path fill="#81b1b3" d="
  M 210.25 78.16
  Q 212.47 78.06 214.66 78.02
  A 2.56 2.56 0.0 0 1 217.04 79.53
  Q 217.69 81.01 218.11 82.56
  Q 221.48 95.03 220.65 109.33
  Q 219.70 125.68 210.13 139.34
  C 209.70 139.96 209.18 140.33 208.62 140.81
  A 2.01 2.01 0.0 0 1 207.63 141.27
  C 180.84 145.74 153.20 147.21 126.11 144.60
  Q 96.38 141.74 66.34 141.07
  A 2.63 2.62 -87.5 0 1 63.78 138.27
  Q 64.88 122.21 65.75 105.64
  Q 65.98 101.33 67.60 98.35
  C 71.40 91.38 80.10 86.68 87.41 84.47
  Q 92.08 83.06 102.80 82.64
  Q 156.54 80.49 210.25 78.16
  Z"
/>
<path fill="#82a67a" d="
  M 206.34 195.14
  C 205.94 207.51 195.86 212.16 185.45 214.72
  Q 166.97 219.27 144.73 219.47
  C 98.83 219.90 53.42 217.87 7.50 215.19
  A 0.35 0.35 0.0 0 1 7.17 214.79
  L 15.54 163.52
  A 2.49 2.47 -1.2 0 1 17.51 161.48
  Q 26.20 159.74 35.37 159.03
  C 63.40 156.85 91.00 156.99 119.23 157.82
  Q 159.32 158.99 199.18 161.47
  C 201.94 161.64 206.30 161.54 206.34 165.50
  Q 206.56 188.00 206.34 195.14
  Z"
/>
<path fill="#68615b" d="
  M 453.79 210.94
  L 450.94 209.12
  Q 450.48 208.83 450.34 208.31
  Q 450.13 207.50 450.28 206.66
  Q 450.42 205.90 451.19 205.89
  L 460.18 205.84
  Q 460.77 205.84 460.77 206.43
  L 460.77 261.24
  Q 460.77 261.51 460.50 261.51
  L 454.31 261.47
  Q 454.06 261.47 454.06 261.21
  L 454.09 211.50
  A 0.67 0.64 -74.6 0 0 453.79 210.94
  Z"
/>
<path fill="#68615b" d="
  M 316.55 207.05
  C 328.87 205.29 339.81 210.48 343.19 222.97
  Q 346.05 233.55 343.71 244.21
  C 340.60 258.34 329.60 263.93 316.22 262.03
  C 306.83 260.70 300.15 254.24 298.20 245.19
  C 294.80 229.39 297.75 209.73 316.55 207.05
  Z
  M 318.34 256.08
  C 329.96 257.52 336.19 250.44 337.34 239.50
  C 338.36 229.79 337.02 216.93 326.53 213.68
  C 318.09 211.07 308.45 214.15 305.67 223.36
  Q 302.76 233.00 305.02 243.27
  Q 307.54 254.74 318.34 256.08
  Z"
/>
<path fill="#68615b" d="
  M 536.75 220.05
  Q 536.51 220.51 536.51 221.03
  Q 536.53 242.27 536.51 261.23
  A 0.27 0.27 0.0 0 1 536.24 261.50
  L 529.94 261.50
  Q 529.63 261.50 529.63 261.20
  L 529.62 207.97
  A 0.40 0.40 0.0 0 1 530.03 207.57
  L 535.52 207.60
  Q 536.11 207.60 536.43 208.09
  L 563.81 248.70
  Q 564.60 249.88 564.60 248.46
  L 564.56 207.82
  Q 564.56 207.56 564.82 207.56
  L 571.27 207.55
  Q 571.51 207.55 571.51 207.78
  L 571.51 261.00
  Q 571.51 261.51 571.00 261.51
  L 565.53 261.49
  Q 564.93 261.49 564.60 261.00
  L 536.99 220.03
  A 0.14 0.14 0.0 0 0 536.75 220.05
  Z"
/>
<path fill="#68615b" d="
  M 669.49 229.18
  Q 669.55 239.57 669.48 249.82
  C 669.45 254.91 672.61 256.42 677.18 255.61
  Q 678.23 255.42 678.22 256.49
  L 678.21 260.62
  Q 678.21 261.52 677.31 261.63
  C 667.34 262.79 662.78 259.40 662.74 249.27
  Q 662.68 238.03 662.80 229.02
  A 0.63 0.63 0.0 0 0 662.17 228.39
  L 656.53 228.44
  Q 655.86 228.45 655.87 227.78
  L 655.88 225.54
  Q 655.89 224.93 656.46 224.75
  L 662.17 222.86
  Q 662.74 222.67 662.89 222.08
  L 665.10 213.05
  A 1.17 1.17 0.0 0 1 666.21 212.15
  L 668.80 212.11
  Q 669.51 212.10 669.51 212.80
  L 669.51 222.25
  A 0.49 0.49 0.0 0 0 670.00 222.74
  L 677.42 222.74
  A 0.43 0.42 90.0 0 1 677.84 223.17
  L 677.85 228.15
  Q 677.85 228.40 677.61 228.40
  L 670.18 228.47
  Q 669.48 228.48 669.49 229.18
  Z"
/>
<path fill="#68615b" d="
  M 402.25 255.99
  Q 396.52 263.60 386.70 262.00
  C 381.60 261.17 377.73 257.35 377.05 252.19
  C 375.87 243.09 382.45 237.58 390.97 237.40
  Q 395.59 237.30 401.11 237.36
  Q 401.77 237.37 401.76 236.71
  C 401.73 232.05 401.10 227.76 395.16 227.55
  Q 387.83 227.29 380.70 230.21
  A 0.13 0.12 79.2 0 1 380.53 230.09
  L 380.47 224.81
  Q 380.47 224.53 380.73 224.44
  C 391.15 220.78 408.26 219.09 408.42 234.88
  Q 408.54 246.68 408.45 261.09
  A 0.41 0.41 0.0 0 1 408.04 261.49
  L 404.26 261.49
  Q 403.77 261.49 403.69 261.01
  L 402.89 256.14
  A 0.36 0.36 0.0 0 0 402.25 255.99
  Z
  M 390.47 256.88
  Q 396.64 256.82 400.87 251.02
  C 402.37 248.96 401.59 245.55 401.78 243.08
  Q 401.83 242.34 401.08 242.32
  C 396.31 242.21 387.20 241.19 384.58 245.95
  C 382.15 250.38 384.61 256.93 390.47 256.88
  Z"
/>
<path fill="#68615b" d="
  M 444.02 229.59
  Q 438.25 226.75 432.59 227.84
  C 424.98 229.31 423.11 236.09 423.36 243.01
  C 423.59 249.31 425.57 255.31 432.53 256.45
  Q 438.76 257.47 445.57 254.14
  Q 446.20 253.83 446.19 254.53
  L 446.16 258.77
  Q 446.15 259.68 445.32 260.07
  Q 439.44 262.78 432.46 262.22
  Q 420.76 261.29 417.70 250.75
  Q 415.52 243.25 417.01 235.94
  C 419.73 222.65 432.32 219.55 443.69 223.68
  Q 445.20 224.23 445.21 225.85
  L 445.23 228.83
  Q 445.24 230.19 444.02 229.59
  Z"
/>
<path fill="#68615b" d="
  M 476.22 244.90
  C 476.89 252.47 480.83 256.61 488.55 256.55
  Q 495.08 256.50 500.35 254.04
  Q 501.03 253.72 501.03 254.47
  L 501.04 258.72
  Q 501.04 259.68 500.15 260.04
  Q 493.09 262.93 484.83 262.11
  C 475.21 261.14 470.34 254.59 469.53 245.39
  C 468.33 231.56 473.60 220.60 489.30 222.16
  C 501.43 223.37 503.47 233.43 502.70 243.62
  Q 502.65 244.25 502.01 244.25
  L 476.82 244.25
  Q 476.16 244.25 476.22 244.90
  Z
  M 476.73 238.82
  L 496.19 238.68
  A 0.32 0.32 0.0 0 0 496.51 238.36
  L 496.50 237.45
  A 9.97 8.93 89.6 0 0 487.50 227.54
  L 485.26 227.56
  A 9.97 8.93 89.6 0 0 476.40 237.59
  L 476.41 238.50
  A 0.32 0.32 0.0 0 0 476.73 238.82
  Z"
/>
<path fill="#68615b" d="
  M 587.31 244.96
  Q 587.98 252.12 592.27 254.75
  C 597.35 257.88 605.89 256.56 611.39 254.06
  Q 612.06 253.75 612.06 254.49
  L 612.03 258.96
  Q 612.03 259.78 611.27 260.06
  Q 603.44 263.05 595.57 262.07
  C 582.39 260.43 579.09 248.34 580.75 236.95
  Q 583.01 221.36 599.20 222.07
  C 612.27 222.64 614.57 233.02 613.89 243.71
  Q 613.86 244.25 613.31 244.25
  L 587.96 244.25
  A 0.65 0.65 0.0 0 0 587.31 244.96
  Z
  M 588.01 238.82
  L 607.09 238.68
  A 0.49 0.49 0.0 0 0 607.58 238.19
  L 607.57 237.30
  A 9.82 9.13 89.6 0 0 598.37 227.54
  L 596.57 227.56
  A 9.82 9.13 89.6 0 0 587.51 237.44
  L 587.52 238.33
  A 0.49 0.49 0.0 0 0 588.01 238.82
  Z"
/>
<path fill="#68615b" d="
  M 360.35 228.98
  C 363.13 224.29 367.33 222.02 372.99 222.89
  Q 373.27 222.94 373.27 223.22
  L 373.26 228.71
  Q 373.26 228.96 373.02 228.94
  C 365.78 228.46 360.61 232.89 360.66 240.02
  Q 360.75 251.39 360.70 261.02
  A 0.48 0.47 -89.4 0 1 360.23 261.49
  L 354.26 261.48
  Q 353.79 261.48 353.79 261.01
  L 353.76 223.24
  Q 353.76 222.75 354.26 222.75
  L 357.94 222.76
  Q 358.54 222.76 358.64 223.35
  L 359.58 228.84
  Q 359.77 229.96 360.35 228.98
  Z"
/>
<path fill="#68615b" d="
  M 636.15 236.96
  L 646.00 222.88
  A 0.33 0.33 0.0 0 1 646.27 222.74
  L 652.50 222.76
  A 0.33 0.33 0.0 0 1 652.77 223.28
  L 639.88 241.26
  A 0.33 0.33 0.0 0 0 639.87 241.64
  L 653.45 260.92
  A 0.33 0.33 0.0 0 1 653.18 261.44
  L 646.18 261.48
  A 0.33 0.33 0.0 0 1 645.90 261.33
  L 635.55 246.06
  A 0.33 0.33 0.0 0 0 635.01 246.06
  L 624.46 261.37
  A 0.33 0.33 0.0 0 1 624.19 261.51
  L 618.03 261.46
  A 0.33 0.33 0.0 0 1 617.76 260.94
  L 631.30 241.74
  A 0.33 0.33 0.0 0 0 631.30 241.36
  L 618.49 223.28
  A 0.33 0.33 0.0 0 1 618.76 222.76
  L 625.76 222.76
  A 0.33 0.33 0.0 0 1 626.03 222.90
  L 635.61 236.96
  A 0.33 0.33 0.0 0 0 636.15 236.96
  Z"
/>
<path fill="#68615b" d="
  M 366.76 311.63
  A 0.43 0.43 0.0 0 0 367.47 311.30
  L 367.47 291.77
  A 0.26 0.26 0.0 0 1 367.73 291.51
  L 374.04 291.51
  A 0.28 0.28 0.0 0 1 374.32 291.79
  L 374.34 346.52
  Q 374.34 347.14 373.73 347.14
  L 370.26 347.18
  A 0.67 0.67 0.0 0 1 369.60 346.62
  L 368.78 341.78
  A 0.39 0.39 0.0 0 0 368.10 341.60
  Q 361.56 349.51 351.52 347.35
  C 340.14 344.90 338.00 331.78 339.75 321.79
  Q 341.69 310.69 351.06 308.06
  C 356.39 306.56 362.47 307.99 366.76 311.63
  Z
  M 367.01 336.22
  Q 367.47 335.55 367.47 334.74
  L 367.46 318.98
  Q 367.46 318.27 366.98 317.75
  Q 362.84 313.25 357.48 313.07
  C 347.26 312.75 345.58 322.71 346.28 330.77
  C 346.72 335.82 349.25 341.53 354.78 342.20
  Q 362.33 343.12 367.01 336.22
  Z"
/>
<path fill="#68615b" d="
  M 306.15 323.12
  L 306.13 340.72
  A 0.39 0.39 0.0 0 0 306.52 341.11
  L 332.75 341.09
  A 0.39 0.39 0.0 0 1 333.14 341.48
  L 333.12 346.74
  A 0.39 0.39 0.0 0 1 332.73 347.13
  L 299.60 347.17
  A 0.39 0.39 0.0 0 1 299.21 346.78
  L 299.22 293.64
  A 0.39 0.39 0.0 0 1 299.61 293.25
  L 331.99 293.24
  A 0.39 0.39 0.0 0 1 332.38 293.63
  L 332.41 298.83
  A 0.39 0.39 0.0 0 1 332.02 299.22
  L 306.51 299.23
  A 0.39 0.39 0.0 0 0 306.12 299.62
  L 306.15 316.33
  A 0.39 0.39 0.0 0 0 306.54 316.72
  L 329.74 316.73
  A 0.39 0.39 0.0 0 1 330.13 317.12
  L 330.17 322.34
  A 0.39 0.39 0.0 0 1 329.78 322.73
  L 306.54 322.73
  A 0.39 0.39 0.0 0 0 306.15 323.12
  Z"
/>
<rect fill="#68615b" x="527.72" y="293.46" width="8.26" height="6.08" rx="0.28"/>
<path fill="#68615b" d="
  M 511.74 308.34
  L 519.04 308.34
  Q 519.49 308.34 519.49 308.79
  L 519.48 313.40
  Q 519.48 313.79 519.10 313.79
  L 511.70 313.81
  Q 511.09 313.81 511.09 314.43
  Q 511.18 324.95 511.17 335.77
  C 511.16 340.66 515.07 342.33 519.19 341.15
  A 0.64 0.63 -7.9 0 1 520.00 341.76
  L 519.98 346.33
  Q 519.98 347.11 519.21 347.18
  C 509.09 348.20 504.24 345.07 504.36 334.59
  Q 504.49 323.72 504.43 314.42
  Q 504.42 313.79 503.79 313.79
  L 498.51 313.77
  Q 497.74 313.77 497.74 313.01
  L 497.75 311.23
  Q 497.75 310.39 498.54 310.13
  L 503.91 308.35
  A 0.88 0.86 -2.1 0 0 504.48 307.75
  L 506.83 298.37
  Q 506.99 297.74 507.64 297.74
  L 510.57 297.74
  Q 511.16 297.74 511.16 298.32
  L 511.14 307.74
  Q 511.13 308.34 511.74 308.34
  Z"
/>
<path fill="#68615b" d="
  M 455.37 339.67
  A 0.39 0.38 76.8 0 1 455.92 340.02
  L 455.89 344.57
  Q 455.89 345.07 455.46 345.32
  Q 453.32 346.57 450.86 347.07
  C 441.75 348.94 431.69 347.58 428.09 338.13
  Q 425.03 330.10 426.87 321.13
  C 429.62 307.78 443.53 304.64 454.60 309.83
  Q 454.78 309.92 454.80 310.11
  Q 455.08 312.73 454.89 315.54
  A 0.05 0.05 0.0 0 1 454.82 315.58
  Q 447.48 311.81 440.96 313.78
  C 432.68 316.28 432.34 326.15 433.72 333.31
  C 435.82 344.29 447.72 343.51 455.37 339.67
  Z"
/>
<path fill="#68615b" d="
  M 487.16 342.23
  Q 486.96 340.99 486.15 341.95
  Q 479.45 349.92 469.29 347.08
  Q 462.65 345.22 461.43 338.33
  C 459.78 329.04 465.98 323.37 474.76 323.07
  Q 479.65 322.90 485.10 323.05
  A 0.68 0.68 0.0 0 0 485.79 322.37
  C 485.77 318.39 485.85 314.28 481.13 313.37
  C 475.91 312.36 469.98 313.87 464.96 315.60
  A 0.18 0.18 0.0 0 1 464.72 315.43
  L 464.70 310.48
  Q 464.70 310.12 465.03 310.00
  C 472.84 307.05 487.11 304.93 491.33 314.08
  Q 492.70 317.04 492.59 323.59
  Q 492.38 335.79 492.54 346.43
  Q 492.55 347.19 491.79 347.18
  L 488.55 347.15
  A 0.70 0.70 0.0 0 1 487.87 346.56
  L 487.16 342.23
  Z
  M 484.99 336.68
  C 486.65 334.34 485.80 331.25 486.03 328.56
  Q 486.09 327.87 485.41 327.87
  Q 479.73 327.85 475.01 328.12
  C 463.32 328.81 466.90 346.73 479.02 341.57
  Q 482.60 340.04 484.99 336.68
  Z"
/>
<path fill="#68615b" d="
  M 581.2114 330.8863
  A 16.69 16.69 0.0 0 1 564.5798 347.6344
  L 561.4598 347.6453
  A 16.69 16.69 0.0 0 1 544.7117 331.0137
  L 544.6886 324.3937
  A 16.69 16.69 0.0 0 1 561.3202 307.6456
  L 564.4402 307.6347
  A 16.69 16.69 0.0 0 1 581.1883 324.2663
  L 581.2114 330.8863
  Z
  M 574.2139 323.7493
  A 10.40 10.40 0.0 0 0 563.8503 313.3131
  L 562.1503 313.3071
  A 10.40 10.40 0.0 0 0 551.7140 323.6708
  L 551.6861 331.6707
  A 10.40 10.40 0.0 0 0 562.0497 342.1069
  L 563.7497 342.1129
  A 10.40 10.40 0.0 0 0 574.1860 331.7492
  L 574.2139 323.7493
  Z"
/>
<path fill="#68615b" d="
  M 596.06 314.15
  Q 601.95 306.49 612.17 307.68
  C 620.21 308.61 623.29 315.62 623.34 322.80
  Q 623.42 333.87 623.32 346.59
  Q 623.31 347.15 622.75 347.15
  L 617.02 347.10
  Q 616.55 347.10 616.54 346.63
  Q 616.36 335.71 616.55 324.23
  C 616.67 317.30 613.78 312.22 605.99 313.53
  C 601.89 314.21 596.51 318.42 596.53 323.33
  Q 596.61 335.72 596.51 346.75
  Q 596.51 347.20 596.06 347.20
  L 590.13 347.15
  Q 589.75 347.15 589.75 346.77
  L 589.76 308.95
  Q 589.76 308.41 590.30 308.41
  L 593.79 308.38
  A 0.77 0.76 -4.7 0 1 594.56 309.03
  L 595.33 313.97
  A 0.41 0.41 0.0 0 0 596.06 314.15
  Z"
/>
<path fill="#68615b" d="
  M 412.16 341.50
  Q 412.00 340.58 411.42 341.32
  Q 406.07 348.24 397.02 347.74
  C 387.98 347.25 384.79 340.23 384.78 332.29
  Q 384.78 320.47 384.78 308.78
  A 0.41 0.41 0.0 0 1 385.19 308.37
  L 391.13 308.39
  Q 391.53 308.39 391.53 308.79
  Q 391.50 320.70 391.54 332.71
  C 391.59 345.10 404.49 344.47 409.77 336.10
  Q 411.03 334.10 410.97 331.01
  Q 410.78 320.62 410.90 308.56
  Q 410.90 308.39 411.07 308.39
  L 417.66 308.42
  Q 417.78 308.42 417.78 308.54
  L 417.76 346.39
  Q 417.76 347.15 416.99 347.15
  L 413.99 347.16
  Q 413.17 347.17 413.03 346.36
  L 412.16 341.50
  Z"
/>
<path fill="#68615b" d="
  M 529.04 313.42
  L 525.70 311.42
  A 0.46 0.46 0.0 0 1 525.47 311.04
  L 525.43 308.83
  A 0.46 0.46 0.0 0 1 525.89 308.36
  L 535.51 308.39
  A 0.46 0.46 0.0 0 1 535.97 308.85
  L 535.98 346.67
  A 0.46 0.46 0.0 0 1 535.52 347.13
  L 529.74 347.20
  A 0.46 0.46 0.0 0 1 529.28 346.74
  L 529.26 313.81
  A 0.46 0.46 0.0 0 0 529.04 313.42
  Z"
/>
</svg>
